<svg width="23" height="21" viewBox="0 0 23 21" fill="none" xmlns="http://www.w3.org/2000/svg">
<path d="M10.6033 0.816987C10.9701 0.0737418 12.0299 0.0737397 12.3967 0.816985L14.941 5.9722C15.0866 6.26734 15.3682 6.47191 15.6939 6.51924L21.383 7.34592C22.2033 7.4651 22.5308 8.47308 21.9373 9.05161L17.8206 13.0644C17.5849 13.2941 17.4773 13.6251 17.533 13.9495L18.5048 19.6157C18.6449 20.4326 17.7875 21.0555 17.0538 20.6698L11.9653 17.9946C11.674 17.8415 11.326 17.8415 11.0347 17.9946L5.94616 20.6698C5.21253 21.0555 4.3551 20.4326 4.49521 19.6157L5.46702 13.9495C5.52266 13.6251 5.41511 13.2941 5.17943 13.0644L1.06274 9.05161C0.469227 8.47308 0.796736 7.4651 1.61696 7.34592L7.30607 6.51924C7.63178 6.47191 7.91335 6.26735 8.05901 5.9722L10.6033 0.816987Z" fill="white"/>
</svg>
